<?xml version="1.0" encoding="utf-8"?>
<!-- Generator: Adobe Illustrator 16.0.0, SVG Export Plug-In . SVG Version: 6.00 Build 0)  -->
<!DOCTYPE svg PUBLIC "-//W3C//DTD SVG 1.1//EN" "http://www.w3.org/Graphics/SVG/1.1/DTD/svg11.dtd">
<svg version="1.1" id="Layer_1" xmlns="http://www.w3.org/2000/svg" xmlns:xlink="http://www.w3.org/1999/xlink" x="0px" y="0px"
	 width="200.353px" height="168.638px" viewBox="0 0 200.353 168.638" enable-background="new 0 0 200.353 168.638"
	 xml:space="preserve">
<path fill="#FFFFFF" d="M190.788,45.14c3.209-0.219,8.066,1.065,9.215,0.599c1.809-0.74-4.062-1.976-2.254-2.715
	c-10.846-0.894-21.525-1.353-32.21-1.692c-2.107-3.473-4.493-6.78-7.118-9.847c0.487,0.673,0.899,1.381,1.324,2.056
	c0.413,0.682,0.842,1.331,1.209,1.994c0.716,1.339,1.454,2.56,2,3.774c-3.607-6.26-8.426-11.716-10.54-13.499
	c-2.762-2.656-4.645-4.039-5.691-4.721c-1.046-0.684-1.272-0.662-1.01-0.212c0.26,0.453,1.022,1.32,1.926,2.372
	c0.437,0.539,0.909,1.124,1.389,1.716c0.236,0.295,0.476,0.592,0.711,0.886c0.22,0.307,0.438,0.611,0.649,0.907
	c1.291,1.615,0.854,1.521,0.626,1.643c-0.241,0.127-0.218,0.417,1.698,2.938c-2.975-3.446-4.612-5.059-8.068-8.056
	c-0.159-0.014,0.438,0.539,1.38,1.348c0.454,0.424,0.987,0.921,1.552,1.448c0.569,0.522,1.171,1.073,1.717,1.652
	c0.554,0.571,1.093,1.126,1.573,1.622c0.467,0.507,0.849,0.979,1.138,1.331c0.572,0.712,0.72,1,0.084,0.506
	c-2.755-3.403-6.483-6.626-10.062-9.393c0.494,0.647,3.499,3.152,6.063,5.717c2.541,2.59,4.633,5.198,4.229,5.081
	c-0.422-0.437-1.119-1.274-1.947-2.293c-0.877-0.972-1.86-2.152-2.907-3.205c-2.053-2.15-4.217-3.912-4.728-3.963
	c-0.099-0.014,0.698,0.718,1.739,1.625c1.065,0.88,2.239,2.09,3.069,2.843c-5.037-4.742-9.662-7.511-11.507-8.379
	c-0.936-0.426-1.176-0.406-0.55,0.16c0.659,0.539,2.095,1.712,4.487,3.667c-1.694-1.308-3.806-2.805-6.023-4.205
	c-1.104-0.706-2.271-1.326-3.376-1.964c-1.138-0.58-2.251-1.109-3.28-1.59c0.002,0.006,0.019,0.017,0.026,0.024
	c1.008,0.521,2.407,1.18,3.726,1.941c1.316,0.764,2.62,1.5,3.491,2.079c-2.177-1.363-4.466-2.56-6.788-3.673
	c0.328,0.256,0.704,0.534,1.101,0.822l1.271,0.675c0.415,0.243,0.832,0.486,1.251,0.731c0.828,0.502,1.704,0.945,2.537,1.494
	c-0.709-0.466-1.466-0.851-2.206-1.27c-0.745-0.407-1.478-0.844-2.254-1.201c1.066,0.717,2.223,1.646,3.535,2.555
	c5,3.392,9.015,7.479,11.305,9.69c3.709,3.544,6.977,7.537,9.756,11.843c-8.853-0.241-17.751-0.476-26.792-0.877
	c-8.193,0.978-63.085-0.821-77.151-2.022c-0.429-0.006-0.854-0.012-1.281-0.018c-2.223-0.145-4.585-0.26-6.979-0.333l1.053-1.492
	c0.45-0.577,0.899-1.152,1.346-1.725c0.865-1.168,1.864-2.208,2.77-3.292c0.963-1.031,1.909-2.046,2.868-2.995
	c0.99-0.916,1.895-1.869,2.87-2.674c-0.505,0.02,0.221-1.045,1.617-2.558c1.414-1.49,3.509-3.419,5.679-5.105
	c0.541-0.425,1.077-0.846,1.599-1.254c0.535-0.388,1.055-0.765,1.546-1.122c0.489-0.363,0.951-0.705,1.375-1.019
	c0.434-0.297,0.824-0.574,1.159-0.822c1.337-0.996,1.791-1.557,0.5-1.262c3.146-1.59,7.235-3.258,10.651-4.389
	c3.424-1.107,6.132-1.771,6.354-2.032c0.338-0.378,0.92-0.766,1.893-1.254c0.488-0.238,1.072-0.508,1.781-0.775
	c0.712-0.247,1.545-0.509,2.52-0.787c3.887-1.016,10.178-2.238,19.971-1.311c3.822,0.392,8.579,1.545,12.589,2.909
	c0.503,0.168,1,0.321,1.478,0.492c0.473,0.181,0.935,0.357,1.381,0.527c0.89,0.349,1.731,0.64,2.468,0.956
	c1.469,0.632,2.614,1.105,3.259,1.318c0.945,0.332,0.908,0.211,0.379-0.134c-0.531-0.346-1.668-0.926-2.772-1.503
	c-1.104-0.603-2.263-1.082-2.857-1.415c-0.599-0.321-0.654-0.441,0.39-0.155c-6.749-2.575-13.865-4.094-21.021-4.671
	c-3.583-0.251-7.174-0.271-10.748-0.052c-3.567,0.276-7.124,0.706-10.616,1.457c-13.985,2.908-27.052,9.759-37.367,19.575
	c-2.609,2.423-4.958,5.111-7.21,7.865c-2.163,2.763-4.169,5.651-5.959,8.672c-2.723,0.08-5.301,0.25-7.547,0.545
	c-3.016,0.577-6.087,1.304-9.145,2.001c1.383,0.556,2.663,1.107,3.77,1.645c-3.073-0.198-6.144-0.397-7.349,0.094
	c-6.604,0.999-2.96,2.663-0.53,4.816c1.773,0.973-0.737,2.238,2.06,3.273c-2.042-0.133-3.066-0.199-5.118-0.332
	c-0.272,0.84,6.331-0.16,4.846,1.17c-1.957-0.41-4.188,0.014-6.232-0.119c0.659,1.184,7.075,0.744,6.711,1.862
	c-1.117,0.215-5.687-1.795-6.145-0.397c-0.091,0.28,1.957,0.412,2.98,0.479c-6.326,0.16-9.859,1.358-4.169,3.153
	C4.921,55.782,2.122,55.059,0,55.162c0.002,0.008,0.011,0.015,0.015,0.023c1.053,0.094,2.858,0.466,3.832,0.528
	c-1.196-0.078-2.397-0.155-3.595-0.233c0.18,0.208,0.386,0.413,0.603,0.618c0.889,0.213,1.782,0.393,2.716,0.454
	c-0.793-0.051-1.589-0.103-2.388-0.154c0.577,0.486,1.243,0.962,1.978,1.412c2.799,1.037,5.46,2.494,6.995,2.593
	c4.455,0.436,8.918,0.834,13.383,1.211c-2.633,12.659-2.004,26.056,1.902,38.573c0.825,2.327,2.194,6.365,4.752,11.349
	c2.562,4.961,6.219,10.943,11.523,16.79c2.641,2.923,5.64,5.846,9.042,8.57c3.406,2.716,7.182,5.259,11.273,7.493
	c6.169,3.384,13.091,6.058,20.378,7.681c-0.414,2.898-0.892,5.779-1.219,8.698c-0.267,2.396,0.327,3.33,1.876,4.048
	c2.285,1.061,4.532,2.05,6.963,2.079c1.166,0.014,2.223,2.652,3.304,1.236c1.686-2.205,3.21-0.952,4.665-0.123
	c1.593,0.906,2.975,0.717,4.586,0.173c2.302-0.777,1.528-3.816,2.329-5.787c0.923,3.244,1.896,4.249,3.419,3.637
	c1.899-0.765,1.476-3.066,1.564-5.014c0.019-0.398-0.068-0.805-0.09-1.208c-0.123-2.227-0.218-4.452-0.296-6.679
	c3.256-0.453,6.466-1.108,9.585-1.965c9.428-2.55,18.003-6.884,25.058-12.042c3.535-2.575,6.702-5.346,9.503-8.156
	c2.77-2.843,5.162-5.723,7.228-8.495c4.069-5.599,6.72-10.781,8.442-14.655c0.391-0.957,0.814-1.894,1.17-2.857
	c3.441-8.613,5.394-18.92,5.111-28.842c-0.12-4.958-0.754-9.804-1.775-14.286c-0.533-2.351-1.173-4.596-1.879-6.721
	c0.068-1.159-0.078-2.232-0.663-3.099c3.069,0.198,7.679,0.498,7.953-0.341C180.068,49.154,182.56,46.32,190.788,45.14z
	 M122.425,71.283c-0.276,0.394-0.662,0.816-1.094,1.267c-0.45,0.43-0.938,0.897-1.435,1.371c-0.131,0.158-0.262,0.315-0.391,0.471
	c-0.052,0.17,0.016,0.299,0.058,0.378c-0.469,0.421-0.876,0.797-1.306,1.102c-0.588,0.631-1.136,1.303-1.768,1.92
	c-0.632,0.639-1.185,1.235-1.938,1.955c-0.71,0.688-1.422,1.394-2.139,2.14c-0.719,0.717-1.424,1.508-2.129,2.289
	c-0.044,0.049-0.086,0.102-0.13,0.15l0.206-16.668c-0.086-0.76-0.172-2.266-0.259-4.17c5.506,0.343,11.062,0.778,16.979,0.782
	c-0.227,0.237-0.449,0.472-0.677,0.711c-1.491,2.203-2.758,4.142-4.143,5.979C122.411,71.007,122.533,71.072,122.425,71.283z
	 M79.48,63.9c-0.113-0.315-0.161-0.604,0.327-0.697c1.268-0.086,2.828,0.045,4.527,0.208c-0.205,6.119-0.416,13.229-0.591,20.699
	c-0.34-0.349-0.682-0.695-1.039-1.027l-1.365-1.277l-1.446-1.157c-0.43-0.342-0.86-0.685-1.287-1.024
	c-0.283-0.219-0.566-0.438-0.828-0.699c-1.074-0.978-2.063-2.258-3.029-3.684c-0.962-1.415-1.9-2.906-2.774-4.215
	c-0.889-1.317-1.675-2.445-2.296-3.269l-0.478-0.573c-0.869-1.099-1.885-2.229-2.987-3.295C70.651,63.957,75.073,63.97,79.48,63.9z
	 M54.368,127.535c-2.933-2.496-5.677-5.258-8.184-8.262c-5.004-6.009-9.098-12.986-11.814-20.651
	c-2.732-7.653-4.157-15.961-3.98-24.456c-0.032-1.8,0.091-3.596,0.187-5.396c0.188-1.788,0.347-3.585,0.667-5.351
	c0.065-0.394,0.146-0.783,0.217-1.175c4.79,0.357,9.579,0.672,14.363,0.928c0.438,0.453,0.823,0.829,1.145,1.009
	c2.55,1.509,5.087,3.093,7.255,4.815l0.838,0.629l0.738,0.658c0.485,0.443,0.999,0.848,1.47,1.307
	c0.944,0.92,1.814,1.905,2.667,2.935c0.197-0.147,0.205-0.535,0.576-0.25c1.095,0.97,1.104,2.424,2.166,3.556l0.393-0.129
	c0.534,1.088,1.064,2.331,1.729,3.651c1.537,2.184,3.515,4.733,6.196,6.787c0.025-0.167,0.081-0.294,0.371-0.128
	c0.274,0.19,0.603,0.438,0.88,0.658c0.198,0.16,0.402,0.34,0.614,0.529c0.41,0.388,0.896,0.775,1.317,1.223
	c0.146,0.108,0.292,0.219,0.436,0.325c0.16,0.034,0.283-0.041,0.359-0.087c0.385,0.408,0.757,0.75,1.013,1.137
	c2.347,1.943,4.427,4.323,6.095,7.228c0.466,0.814,0.892,1.676,1.291,2.564c-0.025,3.403,0.116,11.59-0.403,14.077
	c-1.839,2.584,0.338,6.926,0.325,9.874c-0.022,5.145-0.236,10.3-0.068,15.43c0.009,0.274-0.002,0.545,0.002,0.818
	c-6.765-1.526-13.395-4.045-19.49-7.652C60.459,132.213,57.319,130.011,54.368,127.535z M160.726,101.206
	c-0.271,0.798-0.606,1.551-0.914,2.297c-0.159,0.372-0.317,0.738-0.475,1.103c-0.17,0.358-0.354,0.706-0.533,1.055
	c-0.363,0.69-0.722,1.373-1.078,2.05c-0.397,0.654-0.793,1.303-1.188,1.952l-0.594,0.97l-0.642,0.944
	c-0.424,0.634-0.85,1.271-1.281,1.917c-0.921,1.252-1.794,2.583-2.799,3.925c0,0.198,0,0.406,0.001,0.611
	c-3.307,4.04-7.314,7.744-11.756,10.996c-3.964,3.157-8.314,5.81-12.888,7.96s-9.377,3.813-14.312,4.86
	c0.285,0.084,0.435,0.182-0.547,0.423c-0.745,0.165-1.565,0.313-2.417,0.452c-0.019-5.197,0.083-10.398,0.321-15.607l0.305-24.698
	c0.035-0.103,0.063-0.209,0.099-0.311c0.818-2.372,2.03-4.526,3.64-6.537c0.41-0.792,1.691-2.53,3.943-4.663
	c1.105-1.07,2.499-2.241,4.028-3.494c1.709-1.418,3.508-2.937,5.217-4.644c3.48-3.316,6.527-7.427,8.725-10.564
	c1.112-1.562,2.05-2.843,2.861-3.741c0.816-0.905,1.498-1.536,2.049-1.934l0.369-0.326c1.084-0.803,2.681-1.713,4.352-2.601
	c5.737-0.039,12.815,0.027,18.131,0.131c2.517,12.161,1.514,24.966-2.872,36.513C160.671,100.372,161.36,99.156,160.726,101.206z"/>
</svg>
